#!OML:ASF I:\Actors\actors\Patient Classification 1\Patient 1\Session 1\Subject1.ASF
:FULLY-SPECIFIED
:DEGREES
1220
root 0.180511 17.6901 7.90985 16.7881 -1.04136 -9.51995
lowerback 16.0477 1.26823 8.63798
upperback 5.0098 2.88628 -2.13292
thorax -3.05311 1.46361 -7.70882
lowerneck -3.58908 12.3572 16.0488
upperneck 24.7048 16.1382 -4.34861
head 10.1987 8.46961 -2.32544
rclavicle 7.15625e-015 -6.36111e-015
rhumerus -17.7695 44.9442 -52.2328
rradius 143.167
rwrist -32.6573
rhand 70.0908 -52.1697
rfingers 7.12502
rthumb 73.6022 16.1924
lclavicle 7.15625e-015 -6.36111e-015
lhumerus -36.7078 -52.1062 84.7526
lradius 142.845
lwrist 25.2893
lhand 5.9817 -39.7604
lfingers 7.12502
lthumb 31.3059 -12.4177
rfemur -18.3435 22.5796 20.9279
rtibia 8.46128
rfoot -10.1785 -24.2419
rtoes -1.22606
lfemur -13.1969 -32.3941 0.140335
ltibia -0.184299
lfoot -11.6324 44.3157
ltoes 1.92171
1221
root 0.189202 17.6814 7.92462 16.7355 -1.03261 -9.63698
lowerback 16.0942 1.15226 8.71465
upperback 5.01894 2.74359 -2.2756
thorax -3.08285 1.39323 -7.88752
lowerneck -3.92284 12.3796 15.9039
upperneck 24.8143 16.0737 -4.07965
head 10.2559 8.44401 -2.19845
rclavicle -1.27222e-014 4.69132e-014
rhumerus -20.7746 40.6117 -59.6913
rradius 143.334
rwrist -32.1004
rhand 70.6761 -53.4175
rfingers 7.12502
rthumb 73.3616 16.7442
lclavicle -1.27222e-014 4.69132e-014
lhumerus -38.3684 -46.4208 92.0085
lradius 142.49
lwrist 24.4562
lhand 7.59781 -39.8454
lfingers 7.12502
lthumb 32.8445 -12.8125
rfemur -18.3451 22.299 21.121
rtibia 8.71507
rfoot -10.2537 -23.9353
rtoes -1.73652
lfemur -13.069 -32.1872 0.12793
ltibia -0.154372
lfoot -11.5998 44.148
ltoes 1.88525
1222
root 0.193134 17.6728 7.93886 16.5923 -1.06644 -9.64275
lowerback 16.3334 1.16436 8.53228
upperback 5.03762 2.75117 -2.2398
thorax -3.20202 1.38997 -7.75692
lowerneck -4.57212 12.405 15.068
upperneck 25.1763 16.0263 -3.61758
head 10.3784 8.38296 -1.88325
rclavicle -4.77083e-015 -3.97569e-015
rhumerus -22.9702 35.3209 -67.1645
rradius 143.389
rwrist -31.2872
rhand 71.0651 -54.0239
rfingers 7.12502
rthumb 73.1927 17.304
lclavicle -4.77083e-015 -3.97569e-015
lhumerus -39.1431 -40.8351 98.5962
lradius 142.902
lwrist 24.7588
lhand 9.39665 -39.6843
lfingers 7.12502
lthumb 34.5539 -13.0252
rfemur -18.1773 22.0613 21.2286
rtibia 8.83532
rfoot -10.3247 -23.6554
rtoes -2.21848
lfemur -12.7894 -32.0815 -0.0891452
ltibia -0.165523
lfoot -11.3988 44.0874
ltoes 1.40605
1223
root 0.195731 17.6654 7.94878 16.4537 -1.15123 -9.54122
lowerback 16.5831 1.23969 8.14396
upperback 5.01228 2.81404 -2.11153
thorax -3.38142 1.40823 -7.41866
lowerneck -4.90825 12.4057 14.7432
upperneck 25.4499 16.1228 -3.93107
head 10.5449 8.36474 -1.90404
rclavicle -7.15625e-015 7.95139e-016
rhumerus -24.716 30.5414 -73.8951
rradius 143.662
rwrist -30.5197
rhand 72.2514 -54.6678
rfingers 7.12502
rthumb 72.6349 20.0673
lclavicle -7.15625e-015 7.95139e-016
lhumerus -38.8404 -36.2381 104.039
lradius 142.958
lwrist 25.1773
lhand 9.74289 -39.984
lfingers 7.12502
lthumb 34.8824 -13.4006
rfemur -17.9925 21.8911 21.1985
rtibia 8.86452
rfoot -10.3772 -23.4597
rtoes -2.53971
lfemur -12.5211 -32.2351 -0.395081
ltibia -0.197608
lfoot -11.2173 44.2482
ltoes 1.05382
1224
root 0.196538 17.6573 7.95142 16.3579 -1.18084 -9.45174
lowerback 16.7741 1.29775 7.75944
upperback 4.91578 2.85439 -1.92367
thorax -3.61399 1.41095 -7.0144
lowerneck -4.67137 12.3979 14.6986
upperneck 25.4669 16.3148 -4.5392
head 10.5748 8.39828 -2.09477
rclavicle -9.54166e-015 -4.77083e-015
rhumerus -25.3945 29.4788 -78.3651
rradius 143.241
rwrist -31.249
rhand 70.707 -55.6106
rfingers 7.12502
rthumb 73.3485 14.6445
lclavicle -9.54166e-015 -4.77083e-015
lhumerus -38.1292 -33.8665 107.896
lradius 142.518
lwrist 25.1131
lhand 11.95 -40.0778
lfingers 7.12502
lthumb 36.9734 -14.0065
rfemur -17.8452 21.8308 21.1498
rtibia 8.80508
rfoot -10.3578 -23.4293
rtoes -2.71571
lfemur -12.3817 -32.5207 -0.567506
ltibia -0.22509
lfoot -11.0853 44.449
ltoes 0.977795
1225
root 0.193819 17.65 7.94618 16.2818 -1.13793 -9.38763
lowerback 16.635 1.37846 7.63461
upperback 4.94205 2.93485 -1.79856
thorax -3.5128 1.4558 -6.81267
lowerneck -4.28975 12.3437 15.1244
upperneck 25.3998 16.4359 -5.31869
head 10.605 8.42851 -2.43162
rclavicle 1.51076e-014 7.95139e-015
rhumerus -25.5486 29.4858 -81.354
rradius 142.691
rwrist -31.986
rhand 70.5567 -59.5283
rfingers 7.12502
rthumb 73.4121 10.2706
lclavicle 1.51076e-014 7.95139e-015
lhumerus -37.1293 -35.3671 109.403
lradius 141.66
lwrist 25.6813
lhand 15.0733 -39.6256
lfingers 7.12502
lthumb 39.9207 -14.3756
rfemur -17.7236 21.8116 21.1199
rtibia 8.69755
rfoot -10.305 -23.4771
rtoes -2.71583
lfemur -12.3663 -32.6516 -0.644354
ltibia -0.178798
lfoot -10.9982 44.467
ltoes 0.956767
1226
root 0.188586 17.6498 7.93152 16.2984 -1.04538 -9.3736
lowerback 17.0942 1.4366 7.68089
upperback 4.49864 3.07289 -1.71913
thorax -4.21281 1.47399 -6.82066
lowerneck -5.01208 12.3242 15.2735
upperneck 27.2734 16.3145 -4.97344
head 11.4271 8.40571 -2.27044
rclavicle -5.56597e-015 -1.59028e-014
rhumerus -25.7365 30.8412 -82.3102
rradius 142.352
rwrist -34.4349
rhand 68.8289 -65.8474
rfingers 7.12502
rthumb 74.0616 -1.54051
lclavicle -5.56597e-015 -1.59028e-014
lhumerus -37.0191 -40.3443 108.973
lradius 141.188
lwrist 27.5903
lhand 14.4761 -38.8012
lfingers 7.12502
lthumb 39.3583 -13.3848
rfemur -17.7777 21.8678 21.0776
rtibia 8.63795
rfoot -10.3088 -23.6049
rtoes -2.3477
lfemur -12.605 -32.564 -0.523667
ltibia -0.0348792
lfoot -10.9341 44.3086
ltoes 0.897606
1227
root 0.182582 17.6584 7.91248 16.4581 -0.986424 -9.38574
lowerback 16.9965 1.48041 7.61575
upperback 4.27347 3.12963 -1.55803
thorax -4.40755 1.48508 -6.62213
lowerneck -5.48167 12.3622 15.2798
upperneck 28.4415 16.3165 -4.76045
head 11.9606 8.41878 -2.14299
rclavicle -4.6118e-014 4.77083e-015
rhumerus -24.4088 32.9376 -80.1559
rradius 142.198
rwrist -36.0929
rhand 68.7264 -69.6685
rfingers 7.12502
rthumb 74.0952 -5.70122
lclavicle -4.6118e-014 4.77083e-015
lhumerus -35.7569 -46.0369 105.683
lradius 141.476
lwrist 28.8985
lhand 13.8147 -37.2913
lfingers 7.12502
lthumb 38.7348 -11.6958
rfemur -18.035 22.037 20.9593
rtibia 8.58343
rfoot -10.2954 -23.7905
rtoes -1.78234
lfemur -13.015 -32.5773 -0.234827
ltibia 0.0828621
lfoot -11.0589 44.332
ltoes 1.1689
1228
root 0.177401 17.6719 7.8971 16.7338 -1.10081 -9.43896
lowerback 16.5943 1.54275 7.37519
upperback 4.13764 3.16015 -1.30884
thorax -4.36372 1.4994 -6.20288
lowerneck -5.85414 12.4635 14.9192
upperneck 28.8696 16.4048 -4.45544
head 12.1475 8.44513 -1.93411
rclavicle -4.57205e-014 -1.98785e-014
rhumerus -22.4238 35.9219 -76.3481
rradius 142.312
rwrist -33.9014
rhand 71.0719 -66.4608
rfingers 7.12502
rthumb 73.1897 4.88713
lclavicle -4.57205e-014 -1.98785e-014
lhumerus -32.9996 -50.8961 99.3866
lradius 142.023
lwrist 28.6573
lhand 13.6064 -36.7437
lfingers 7.12502
lthumb 38.5383 -11.0929
rfemur -18.3989 22.2366 20.8331
rtibia 8.50875
rfoot -10.212 -23.8229
rtoes -1.45554
lfemur -13.3353 -32.8703 0.0960604
ltibia 0.0292505
lfoot -11.432 44.8034
ltoes 1.94347
1229
root 0.174267 17.6846 7.88417 17.0021 -1.38595 -9.55438
lowerback 16.1755 1.65297 7.29708
upperback 4.03516 3.27297 -1.15476
thorax -4.24579 1.55785 -5.99247
lowerneck -5.43252 12.2809 14.8807
upperneck 28.2921 16.1928 -4.52776
head 11.811 8.353 -2.03064
rclavicle 2.90226e-014 4.77083e-015
rhumerus -19.0246 40.0196 -68.9996
rradius 142.657
rwrist -33.7426
rhand 70.3572 -61.3395
rfingers 7.12502
rthumb 73.4948 7.84807
lclavicle 2.90226e-014 4.77083e-015
lhumerus -28.7711 -55.096 90.931
lradius 142.689
lwrist 28.5549
lhand 9.17957 -36.5205
lfingers 7.12502
lthumb 34.3478 -9.81462
rfemur -18.7394 22.4378 20.7905
rtibia 8.43847
rfoot -10.0741 -23.7088
rtoes -1.46151
lfemur -13.4937 -33.1952 0.411504
ltibia -0.120562
lfoot -11.883 45.4453
ltoes 2.76654
1230
root 0.173048 17.6911 7.87158 17.0849 -1.74585 -9.64199
lowerback 16.0066 1.80613 7.47423
upperback 3.92733 3.49033 -1.21279
thorax -4.22101 1.66172 -6.18776
lowerneck -5.3625 12.0932 14.8602
upperneck 27.8346 15.8798 -4.40783
head 11.5678 8.2269 -2.049
rclavicle -3.4191e-014 1.59028e-015
rhumerus -15.892 42.9054 -61.9805
rradius 143.184
rwrist -33.5932
rhand 70.3627 -57.966
rfingers 7.12502
rthumb 73.4925 11.2387
lclavicle -3.4191e-014 1.59028e-015
lhumerus -22.5578 -59.03 79.9701
lradius 143.163
lwrist 29.3899
lhand 6.69021 -36.7307
lfingers 7.12502
lthumb 31.9808 -9.52085
rfemur -18.8455 22.6591 20.7956
rtibia 8.32919
rfoot -9.88934 -23.5954
rtoes -1.60711
lfemur -13.3795 -33.4535 0.517719
ltibia -0.276003
lfoot -12.4141 45.9802
ltoes 3.50341
1231
root 0.174607 17.6886 7.86004 16.9473 -2.11936 -9.5894
lowerback 15.9827 1.91236 7.65276
upperback 3.91368 3.64727 -1.38458
thorax -4.17307 1.74001 -6.50033
lowerneck -5.46961 11.9173 14.9652
upperneck 27.4938 15.5674 -4.35673
head 11.4267 8.09982 -2.09464
rclavicle -1.59028e-015 -1.03368e-014
rhumerus -11.6793 46.4405 -53.1919
rradius 143.295
rwrist -34.1974
rhand 67.9595 -51.9616
rfingers 7.12502
rthumb 74.3281 9.42147
lclavicle -1.59028e-015 -1.03368e-014
lhumerus -15.2111 -62.7137 67.3342
lradius 143.098
lwrist 30.9691
lhand 4.04842 -36.639
lfingers 7.12502
lthumb 29.4619 -8.95561
rfemur -18.6717 22.8539 20.7341
rtibia 8.1748
rfoot -9.68422 -23.4966
rtoes -1.85115
lfemur -12.9664 -33.6793 0.241926
ltibia -0.426316
lfoot -12.9157 46.3494
ltoes 4.36557
1232
root 0.178372 17.6802 7.84731 16.6819 -2.38304 -9.44827
lowerback 16.0217 1.91026 7.8204
upperback 3.98066 3.66255 -1.55363
thorax -4.09558 1.75299 -6.7805
lowerneck -5.54822 11.7467 15.0813
upperneck 27.189 15.3027 -4.43658
head 11.3122 7.9816 -2.18205
rclavicle -2.78299e-014 1.35174e-014
rhumerus -6.48558 50.0365 -43.3999
rradius 143.45
rwrist -35.0276
rhand 64.4863 -46.9436
rfingers 7.12502
rthumb 74.9438 1.96841
lclavicle -2.78299e-014 1.35174e-014
lhumerus -6.85821 -65.9669 53.5503
lradius 143.221
lwrist 32.5416
lhand 0.593278 -36.0035
lfingers 7.12502
lthumb 26.1585 -7.78565
rfemur -18.3661 22.9213 20.6455
rtibia 8.0545
rfoot -9.52632 -23.392
rtoes -2.06921
lfemur -12.5042 -33.7221 -0.2301
ltibia -0.4997
lfoot -13.05 46.4367
ltoes 4.81307
1233
root 0.180649 17.6734 7.83011 16.4025 -2.45008 -9.33394
lowerback 16.1852 1.84547 8.03527
upperback 4.02053 3.61868 -1.64756
thorax -4.12641 1.73008 -7.00627
lowerneck -5.64322 11.5499 15.0734
upperneck 27.0005 15.0204 -4.49879
head 11.2294 7.84584 -2.24555
rclavicle -4.37326e-015 -1.74931e-014
rhumerus -0.781133 53.5174 -32.9004
rradius 143.72
rwrist -35.4358
rhand 60.4165 -42.5061
rfingers 7.12502
rthumb 74.6863 -8.60904
lclavicle -4.37326e-015 -1.74931e-014
lhumerus 2.1897 -68.4468 39.2752
lradius 143.534
lwrist 34.151
lhand -2.89715 -35.7003
lfingers 7.12502
lthumb 22.8127 -7.02931
rfemur -18.1146 22.8531 20.6257
rtibia 8.05952
rfoot -9.47525 -23.3085
rtoes -2.12841
lfemur -12.2472 -33.4828 -0.59403
ltibia -0.41758
lfoot -12.6679 46.1764
ltoes 4.32662
1234
root 0.180899 17.6727 7.81131 16.2762 -2.43774 -9.23732
lowerback 16.3085 1.79997 8.17688
upperback 4.00519 3.59186 -1.66601
thorax -4.20268 1.71151 -7.11133
lowerneck -5.79908 11.2986 14.9345
upperneck 26.8897 14.6643 -4.51354
head 11.1629 7.66869 -2.28014
rclavicle -7.55382e-015 -1.82882e-014
rhumerus 5.0596 56.5744 -22.2791
rradius 144.196
rwrist -35.4562
rhand 56.3311 -39.0757
rfingers 7.12502
rthumb 73.4196 -18.82
lclavicle -7.55382e-015 -1.82882e-014
lhumerus 11.41 -70.0373 25.3366
lradius 144.064
lwrist 36.2549
lhand -6.45229 -36.0372
lfingers 7.12502
lthumb 19.3975 -6.9847
rfemur -18.1407 22.6981 20.571
rtibia 8.24122
rfoot -9.49433 -23.1859
rtoes -2.17901
lfemur -12.3331 -32.9999 -0.759977
ltibia -0.199468
lfoot -12.1203 45.6877
ltoes 3.56998
